<svg width="192" height="192" viewBox="0 0 192 192" fill="none" xmlns="http://www.w3.org/2000/svg">
  <!-- 背景の角丸四角 -->
  <rect width="192" height="192" rx="48" fill="#dbeafe"/>
  
  <!-- おしゃれな疑問符 -->
  <!-- <path d="M96 36C119.196 36 138 54.804 138 78C138 90 130.8 103.2 121.2 110.4C116.4 114 114 117 114 123V126H78V123C78 111 82.8 105 91.2 98.4C97.2 93.6 100.8 88.8 100.8 82.8C100.8 75 94.8 70.8 87 70.8C79.2 70.8 75 75 75 81H42C42 57 63 36 96 36ZM96 138C102.6 138 108 143.4 108 150C108 156.6 102.6 162 96 162C89.4 162 84 156.6 84 150C84 143.4 89.4 138 96 138Z" fill="#151d2cff"/> -->

  <!-- WHYテキスト -->
  <text
    x="96"
    y="110"
    font-size="160"
    font-weight="bold"
    fill="black"
    text-anchor="middle"
    dominant-baseline="middle"
  >?</text>
</svg>